<svg width="395" height="178" viewBox="0 0 395 178" fill="none" xmlns="http://www.w3.org/2000/svg">
<path d="M57.3495 46.1002H35.5623V131H21.6466V46.1002H0V33.8713H57.3495V46.1002ZM132.017 131H118.101L118.382 121.161L90.5508 93.1887L99.9685 82.3654H118.101V46.1002H85.2094V131H71.2937V58.0481L83.5227 46.1002H69.607V33.8713H119.788L132.017 46.1002V80.6786L119.788 92.9076H108.402V94.7349L132.017 118.068V131ZM215.864 131H202.089V94.5943H169.057V131H155.141V46.1002L167.37 33.8713H215.864V131ZM210.804 46.1002H169.057V92.9076L179.599 82.3654H202.089V54.8151L210.804 46.1002ZM304.425 118.771L292.196 131H243.702V58.0481L255.931 46.1002H242.016V33.8713H292.196L304.425 46.1002V118.771ZM290.51 118.771V46.1002H257.618V129.313L267.879 118.771H290.51ZM387.943 118.771L375.714 131H340.995L328.906 118.771V46.1002L340.995 33.8713H375.714L387.943 46.1002V56.2207L374.027 70.277V46.1002H342.822V118.771H374.027V108.51L387.943 94.5943V118.771Z" fill="#1E1E1E"/>
<path d="M109.218 167H105.437V164.145L102.582 167H95.9065L92.5497 163.643V140.339H96.3695V163.643H105.437V140.339H109.218V167ZM143.521 161.251L137.849 167H134.106L129.708 162.524L125.348 167H121.567L115.895 161.251V140.339H119.715V160.171L123.187 163.759H124.229L127.779 160.171V140.339H131.598V160.171L135.148 163.759H136.228L139.701 160.286V140.339H143.521V161.251ZM154.026 167H150.206V140.339H154.026V167ZM174.972 157.007H165.48V167H161.66V146.975L165.017 143.695H161.197V140.339H174.972V143.695H165.48V156.544L168.297 153.65H174.972V157.007ZM183.83 167H180.01V140.339H183.83V167ZM207.207 163.643L203.85 167H194.32L191.002 163.643V143.695L194.32 140.339H203.85L207.207 143.695V146.473L203.387 150.332V143.695H194.822V163.643H203.387V160.827L207.207 157.007V163.643ZM235.316 163.643L231.959 167H222.429L219.111 163.643V143.695L222.429 140.339H231.959L235.316 143.695V146.473L231.496 150.332V143.695H222.931V163.643H231.496V160.827L235.316 157.007V163.643ZM257.219 167H241.013V140.339H244.833V163.643H253.399V160.325L257.219 156.544V167ZM278.588 167H274.806V164.145L271.951 167H265.276L261.919 163.643V140.339H265.739V163.643H274.806V140.339H278.588V167ZM302.897 163.643L299.54 167H286.229V146.975L289.586 143.695H285.766V140.339H296.685L300.042 143.695V148.441L297.688 150.795H300.042L302.897 153.65V163.643ZM296.222 150.795V143.695H290.049V153.65L292.865 150.795H296.222ZM299.077 163.643V153.65H290.049V163.643H299.077Z" fill="#8F4343"/>
</svg>
